<svg id="Layer_1" data-name="Layer 1" xmlns="http://www.w3.org/2000/svg" viewBox="0 0 1230.94 713.16"><defs><style>.cls-1{fill:#819098;}.cls-2{fill:#6d7c84;}.cls-3{fill:#45545c;}.cls-4{fill:#95a4ac;}.cls-5{fill:#d1e0e8;}.cls-6{fill:#bdccd4;}.cls-7{fill:#596870;}.cls-8{fill:#0d6efd;}.cls-9{fill:#e5f4fc;}</style></defs><path class="cls-1" d="M419.16,1135.57c0,104,84.28,188.25,188.24,188.25s188.25-84.28,188.25-188.25S711.37,947.33,607.4,947.33,419.16,1031.61,419.16,1135.57Zm69.51,0A118.74,118.74,0,1,1,607.4,1254.3,118.73,118.73,0,0,1,488.67,1135.57Z" transform="translate(-397.61 -632.08)"/><path class="cls-2" d="M459,1135.57A148.42,148.42,0,1,0,607.4,987.16,148.42,148.42,0,0,0,459,1135.57Zm29.68,0A118.74,118.74,0,1,1,607.4,1254.3,118.73,118.73,0,0,1,488.67,1135.57Z" transform="translate(-397.61 -632.08)"/><path d="M747.59,1275.75a198.24,198.24,0,1,0-140.19,58.07A196.94,196.94,0,0,0,747.59,1275.75Zm-14.15-266.22a178.25,178.25,0,1,1-126-52.2A177.08,177.08,0,0,1,733.44,1009.53Z" transform="translate(-397.61 -632.08)"/><path d="M607.4,1264.3a127.86,127.86,0,0,1-91.37-38l14.2-14.09a108.34,108.34,0,1,0-21.54-30.93l-18.14,8.41a128.78,128.78,0,0,1,116.85-182.8c71,0,128.74,57.75,128.74,128.73A128.87,128.87,0,0,1,607.4,1264.3Z" transform="translate(-397.61 -632.08)"/><rect x="455.37" y="984.91" width="20" height="20.02" transform="translate(-966.81 -6.05) rotate(-45.31)"/><rect x="739.41" y="1265.87" width="20" height="20.1" transform="translate(-1082.31 279.29) rotate(-45.31)"/><rect x="459.11" y="1270.02" width="17.91" height="20" transform="translate(-1168.69 80.46) rotate(-45.31)"/><rect x="739.55" y="985.36" width="20.23" height="20" transform="translate(-882.78 196.2) rotate(-45.31)"/><rect x="397.66" y="1128.37" width="20.14" height="20" transform="translate(-403.74 -629.86) rotate(-0.31)"/><rect x="797.03" y="1126.21" width="20.14" height="20" transform="translate(-403.72 -627.71) rotate(-0.31)"/><rect x="600.34" y="1323.99" width="20" height="21.2" transform="translate(-404.81 -628.76) rotate(-0.31)"/><rect x="598.19" y="925.67" width="20" height="20.28" transform="translate(-402.65 -628.78) rotate(-0.31)"/><rect x="412.01" y="1051.02" width="20" height="20.23" transform="translate(-1117.53 420.23) rotate(-67.87)"/><rect x="782.08" y="1201.57" width="20" height="20.1" transform="translate(-1026.25 856.92) rotate(-67.87)"/><rect x="523.62" y="1310.31" width="22.46" height="20" transform="translate(-1287.29 686.29) rotate(-67.87)"/><rect x="674.71" y="941.41" width="20.28" height="20" transform="translate(-852.05 595.36) rotate(-67.87)"/><rect x="780.64" y="1050.37" width="21.9" height="20" transform="translate(-747.47 -241.09) rotate(-22.87)"/><rect x="414.33" y="1205.6" width="18.59" height="20" transform="translate(-836.75 -371.86) rotate(-22.87)"/><rect x="675.98" y="1309.12" width="20" height="20.02" transform="translate(-856.37 -261.75) rotate(-22.87)"/><rect x="520.72" y="940.91" width="20" height="20.3" transform="translate(-725.51 -351.05) rotate(-22.87)"/><rect x="492.2" y="960.06" width="20" height="37.08" transform="translate(-857.62 -186.39) rotate(-33.85)"/><rect x="702.68" y="1273.94" width="20" height="36.86" transform="translate(-996.73 -15.94) rotate(-33.85)"/><rect x="433.55" y="1232.82" width="36.85" height="20" transform="translate(-1013.32 -169.6) rotate(-33.85)"/><rect x="747.16" y="1022.4" width="37" height="20" transform="matrix(0.83, -0.56, 0.56, 0.83, -842.92, -30.52)"/><rect x="411.74" y="1082.25" width="20" height="36.95" transform="translate(-1137.36 669.65) rotate(-78.85)"/><rect x="782.4" y="1155.3" width="20" height="36.89" transform="translate(-909.98 1092.28) rotate(-78.86)"/><rect x="554.28" y="1311.18" width="36.79" height="20" transform="matrix(0.19, -0.98, 0.98, 0.19, -1231.88, 995.63)"/><rect x="627.18" y="940.53" width="37.05" height="20" transform="translate(-809.3 768.26) rotate(-78.86)"/><rect x="439.49" y="1013.23" width="20" height="37.1" transform="translate(-1056.31 203.44) rotate(-56.42)"/><rect x="754.27" y="1222.33" width="20" height="36.91" transform="translate(-1089.77 559.12) rotate(-56.42)"/><rect x="486.43" y="1284.19" width="36.88" height="20" transform="translate(-1250.17 366.87) rotate(-56.42)"/><rect x="695.31" y="969.44" width="37.09" height="20" transform="translate(-894.58 400.28) rotate(-56.42)"/><rect x="774.53" y="1090.39" width="37.03" height="20" transform="translate(-599.71 -453.34) rotate(-11.42)"/><rect x="404.24" y="1165.18" width="36.93" height="20" transform="translate(-621.85 -525.16) rotate(-11.42)"/><rect x="635.79" y="1302.07" width="20" height="36.83" transform="translate(-646.23 -478.11) rotate(-11.42)"/><rect x="560.99" y="931.55" width="20" height="37.14" transform="translate(-574.38 -500.25) rotate(-11.42)"/><path class="cls-3" d="M1114.42,1047.32,1056.07,1107a42.16,42.16,0,0,1-30.16,12.69h-52a55.47,55.47,0,0,1-51.48-34.82l-1.2-3s-23.31-63.27-19-75.69,87.85-98.64,87.85-98.64L1136,896.69Z" transform="translate(-397.61 -632.08)"/><circle class="cls-4" cx="992.48" cy="1047.77" r="39.58" transform="translate(-496.02 -529.18) rotate(-5.65)"/><polygon class="cls-3" points="548.95 242.79 483.54 318.37 452.18 244.62 548.95 242.79"/><circle class="cls-5" cx="209.8" cy="503.5" r="64.31"/><path d="M681.72,1135.57a74.32,74.32,0,1,0-74.32,74.32A74.4,74.4,0,0,0,681.72,1135.57Zm-20,0a54.32,54.32,0,1,1-54.32-54.31A54.38,54.38,0,0,1,661.72,1135.57Z" transform="translate(-397.61 -632.08)"/><path d="M609.65,1209.89v-20c.42,0,43.19-.32,103.27-19.68l6.14,19C655.74,1209.65,611.5,1209.89,609.65,1209.89Z" transform="translate(-397.61 -632.08)"/><path class="cls-6" d="M917.94,1074l-119.43,47.12-182,29.35a17.73,17.73,0,0,1-20.14-13.64h0a17.73,17.73,0,0,1,11.82-20.73l173.8-62,124.49-19Z" transform="translate(-397.61 -632.08)"/><path class="cls-6" d="M821.24,958.4a32.29,32.29,0,0,1-43.09,9.26l-180.35-108a21.69,21.69,0,0,1-10.51-17.06l-3.14-43.39.19-.73,76.41,19.79a51.25,51.25,0,0,1,29,20L732,898.06a53.33,53.33,0,0,0,17.49,15.75l73.16,42.12Z" transform="translate(-397.61 -632.08)"/><path class="cls-7" d="M610.55,867.32l-12.75-7.64a21.69,21.69,0,0,1-10.51-17.06l-3.14-43.39.19-.73L636.62,812Z" transform="translate(-397.61 -632.08)"/><circle class="cls-5" cx="1019.82" cy="496.15" r="67.28"/><path class="cls-1" d="M1220.42,1128.26c0,107.71,87.32,195,195,195s195-87.31,195-195-87.32-195-195-195S1220.42,1020.55,1220.42,1128.26Zm52.47,0a142.56,142.56,0,1,1,142.55,142.56A142.55,142.55,0,0,1,1272.89,1128.26Z" transform="translate(-397.61 -632.08)"/><path d="M1560.42,1273.24a205.05,205.05,0,1,0-145,60A203.71,203.71,0,0,0,1560.42,1273.24Zm-14.15-275.81a185,185,0,1,1-130.83-54.19A183.81,183.81,0,0,1,1546.27,997.43Z" transform="translate(-397.61 -632.08)"/><path d="M1415.44,995.71c-73.09,0-132.55,59.46-132.55,132.55s59.46,132.56,132.55,132.56S1548,1201.35,1548,1128.26a131.67,131.67,0,0,0-52.23-105.45l12.13-15.9a153.92,153.92,0,0,1,43.74,52.55,150.92,150.92,0,0,1,16.36,68.8c0,84.12-68.44,152.56-152.56,152.56s-152.55-68.44-152.55-152.56,68.43-152.55,152.55-152.55a152.33,152.33,0,0,1,49.64,8.26l-6.5,18.91" transform="translate(-397.61 -632.08)"/><rect x="1261.26" y="975.32" width="20" height="20.32" transform="translate(-720.99 564.07) rotate(-45.31)"/><rect x="1549.6" y="1260.53" width="20" height="20.4" transform="translate(-838.22 853.75) rotate(-45.31)"/><rect x="1264.9" y="1264.89" width="18.19" height="20" transform="translate(-925.92 651.94) rotate(-45.31)"/><rect x="1549.59" y="975.93" width="20.53" height="20" transform="translate(-635.67 769.43) rotate(-45.31)"/><rect x="1202.52" y="1121.1" width="20.45" height="20" transform="translate(-403.69 -625.52) rotate(-0.31)"/><rect x="1607.94" y="1118.91" width="20.45" height="20" transform="translate(-403.67 -623.34) rotate(-0.31)"/><rect x="1408.42" y="1319.52" width="20" height="21.52" transform="translate(-404.73 -624.44) rotate(-0.31)"/><rect x="1406.24" y="915.18" width="20" height="20.59" transform="translate(-402.57 -624.43) rotate(-0.31)"/><rect x="1217.24" y="1042.42" width="20" height="20.54" transform="translate(-607.81 1160.9) rotate(-67.87)"/><rect x="1592.92" y="1195.25" width="20" height="20.4" transform="translate(-515.13 1604.18) rotate(-67.87)"/><rect x="1330.39" y="1305.79" width="22.8" height="20" transform="translate(-780.1 1431.09) rotate(-67.87)"/><rect x="1483.77" y="931.3" width="20.59" height="20" transform="matrix(0.38, -0.93, 0.93, 0.38, -338.3, 1338.67)"/><rect x="1591.3" y="1041.92" width="22.23" height="20" transform="translate(-680.47 73.42) rotate(-22.87)"/><rect x="1219.44" y="1199.49" width="18.87" height="20" transform="translate(-771.07 -59.37) rotate(-22.87)"/><rect x="1485.21" y="1304.44" width="20" height="20.33" transform="translate(-791.03 52.54) rotate(-22.88)"/><rect x="1327.6" y="930.65" width="20" height="20.61" transform="translate(-658.15 -38.24) rotate(-22.87)"/><rect x="1296.45" y="946.43" width="20" height="38.42" transform="translate(-714.05 259.47) rotate(-33.86)"/><rect x="1514.51" y="1271.61" width="20" height="38.18" transform="translate(-858.17 436.06) rotate(-33.86)"/><rect x="1235.33" y="1229.37" width="38.18" height="20" transform="translate(-875.37 276.9) rotate(-33.86)"/><rect x="1560.23" y="1011.37" width="38.34" height="20" transform="translate(-698.82 420.98) rotate(-33.86)"/><rect x="1213.09" y="1073.02" width="20" height="38.28" transform="translate(-482.52 1448.97) rotate(-78.85)"/><rect x="1597.09" y="1148.7" width="20" height="38.22" transform="translate(-246.96 1886.78) rotate(-78.85)"/><rect x="1360.41" y="1310.55" width="38.12" height="20" transform="translate(-580.41 1786.7) rotate(-78.86)"/><rect x="1435.93" y="926.55" width="38.39" height="20" transform="translate(-142.62 1551.15) rotate(-78.86)"/><rect x="1241.85" y="1001.52" width="20" height="38.43" transform="translate(-688.58 866.91) rotate(-56.42)"/><rect x="1567.96" y="1218.14" width="20" height="38.24" transform="translate(-723.2 1235.45) rotate(-56.42)"/><rect x="1290.12" y="1282.59" width="38.21" height="20" transform="translate(-889.39 1036.28) rotate(-56.42)"/><rect x="1506.51" y="956.52" width="38.43" height="20" transform="matrix(0.55, -0.83, 0.83, 0.55, -521.05, 1070.81)"/><rect x="1588.58" y="1081.81" width="38.37" height="20" transform="translate(-581.87 -292.33) rotate(-11.41)"/><rect x="1204.97" y="1159.3" width="38.26" height="20" transform="translate(-604.86 -366.61) rotate(-11.42)"/><rect x="1445.21" y="1300.76" width="20" height="38.15" transform="translate(-630.1 -317.86) rotate(-11.42)"/><rect x="1367.72" y="916.89" width="20" height="38.47" transform="translate(-555.64 -340.86) rotate(-11.42)"/><path d="M1494.7,1128.22a77.28,77.28,0,1,0-77.28,77.29A77.37,77.37,0,0,0,1494.7,1128.22Zm-20,0a57.28,57.28,0,1,1-57.28-57.28A57.35,57.35,0,0,1,1474.7,1128.22Z" transform="translate(-397.61 -632.08)"/><path class="cls-5" d="M1425.44,1148.32l1.66-.81a22.62,22.62,0,0,0,10.54-30.22L1231.68,691a5.79,5.79,0,0,0-7.73-2.7l-32,15.47a5.79,5.79,0,0,0-2.7,7.73l206,426.28A22.63,22.63,0,0,0,1425.44,1148.32Z" transform="translate(-397.61 -632.08)"/><polygon class="cls-8" points="985.55 487.6 1027.96 467.08 965.37 329.21 922.96 349.73 985.55 487.6"/><polygon class="cls-2" points="844.02 187.49 886.43 166.97 903.29 200.94 860.88 221.46 844.02 187.49"/><polygon class="cls-2" points="787.6 74.19 830.02 53.67 846.88 87.64 804.47 108.17 787.6 74.19"/><path class="cls-5" d="M947.46,952.73s49.5-.46,102.61,1.22c29.81.95,90.83,1.44,120.32,42,26.22,36.09,19.49,81.07,14,91.26-8.75,16.15-25.58,24-44.8,14.27-22.86-11.54-17.22-32.35-22.74-51-4.24-14.39-12.3-32.83-41.18-43.72-21.93-8.26-107.52-23.24-158.94-20.31Z" transform="translate(-397.61 -632.08)"/><polygon class="cls-4" points="470.28 408.97 538.11 333.11 497.33 299.84 400.32 413.7 470.28 408.97"/><polygon class="cls-2" points="498.75 298.24 538.11 333.11 592.49 275.45 565.73 245.92 546.8 243.95 498.75 298.24"/><path class="cls-9" d="M1122.85,889.68l-10.32,19.51a32.88,32.88,0,0,1-31,17.38l-67.41-4a26.88,26.88,0,0,1-18.36-8.79l-33.28-37.36Z" transform="translate(-397.61 -632.08)"/><path class="cls-9" d="M1139.74,834.57l10.33-78.48a3.79,3.79,0,0,0-4-4.2l-28.18,1.49a24,24,0,0,0-10.09,2.83L1028.59,799Z" transform="translate(-397.61 -632.08)"/><polygon class="cls-2" points="798.77 94.17 752.96 151.26 815.29 203.5 839.68 178.85 798.77 94.17"/><path class="cls-8" d="M1028.59,799l111.15,35.56,6.92-54.5,107.57,98.43-24.18,45-44,18.07-24.12,40-33.15-22.69,7.89-68.16L906.6,872.4,660.75,818.29,491.91,774.56a34.84,34.84,0,0,1-23.66-20.9h0L663.65,772Z" transform="translate(-397.61 -632.08)"/><path class="cls-1" d="M936.43,835.47c-22.73,2.84-276.69-62.87-276.69-62.87,0-6.93,10-10.37,16.85-9.65,37.82,4,148.51,15.42,191.65,18.71,59.66,4.54,176-8.85,213.88-11.77C1082.12,769.89,959.16,832.62,936.43,835.47Z" transform="translate(-397.61 -632.08)"/><path class="cls-8" d="M718,785.06l-57.29,33.23a51.25,51.25,0,0,1,29,20L732,898.06a53.33,53.33,0,0,0,17.49,15.75l113.07,67.12a8.3,8.3,0,0,0,10.64-2.2l16.72-18.68-25.22-53.92a12.48,12.48,0,0,1,5.93-16.56l36-17.17-2.19-1.57L854.82,821Z" transform="translate(-397.61 -632.08)"/><path class="cls-1" d="M1214.85,683.53l-17-29.54a16.62,16.62,0,0,0-12.89-7.41l-63.09-3.46-1.5,37.39,53.67,2.92,10.82,15Z" transform="translate(-397.61 -632.08)"/><path class="cls-8" d="M1282.26,795.69l20.65-7.1s5.95-48.38,3.51-58.24c-2.58-10.46-65.24-75.66-77.06-87.9a3.07,3.07,0,0,0-4.09-.28L1211,653Z" transform="translate(-397.61 -632.08)"/><path class="cls-8" d="M1388,792.67a185.87,185.87,0,0,1,90,26.14l71.37,42.52h0a4.83,4.83,0,0,1-5.3,3.15l-93.8-14.62a49.46,49.46,0,0,1-16.51-5.69l-3-1.69a48,48,0,0,0-26-6l-100.29,5.34-24.65-53.2Z" transform="translate(-397.61 -632.08)"/><rect x="1256.13" y="833.28" width="47.12" height="20" transform="translate(-637.14 9.49) rotate(-25.82)"/><rect x="1239.27" y="799.3" width="47.12" height="20" transform="translate(-624.02 -1.28) rotate(-25.82)"/><rect x="1203.62" y="724.73" width="47.12" height="20" transform="translate(-595.1 -24.23) rotate(-25.82)"/><rect x="1177.74" y="680.08" width="47.12" height="20" transform="translate(-578.24 -39.98) rotate(-25.82)"/><rect x="1318.21" y="961.55" width="47.12" height="20" transform="translate(-686.81 49.33) rotate(-25.82)"/><rect x="1380.8" y="1099.42" width="47.12" height="20" transform="translate(-740.61 90.35) rotate(-25.82)"/><path d="M1544.84,874.54a14.6,14.6,0,0,1-2.28-.18l-93.8-14.61a59.6,59.6,0,0,1-19.85-6.85l-3-1.69a37.89,37.89,0,0,0-20.54-4.77l-100.3,5.33-1.06-20,100.29-5.34a57.93,57.93,0,0,1,31.37,7.29l3,1.69a39.27,39.27,0,0,0,13.17,4.54l57.14,8.91-36.07-21.49a176.38,176.38,0,0,0-85.15-24.74h-.09l-108.16-4.08.75-20,108.11,4.07a196.36,196.36,0,0,1,94.78,27.55L1561.61,857l-2.8,7.76A14.88,14.88,0,0,1,1544.84,874.54Z" transform="translate(-397.61 -632.08)"/><path d="M1312.84,789.81,1293,787.37c2.67-21.75,4.84-48.3,3.79-54.29-3.5-7.27-32-39.42-70.34-79.24l-11.54,8.72-12.05-16L1218,635.14a14.7,14.7,0,0,1,19.57,1.44c7.13,7.39,25.54,26.58,42.54,45.26,33.79,37.14,35.17,42.75,36,46.11C1318.8,738.76,1314.29,778,1312.84,789.81Z" transform="translate(-397.61 -632.08)"/><path d="M869,991.7a15.7,15.7,0,0,1-7.68-2l-.09-.06L744.56,922.51a64,64,0,0,1-20.71-18.67l-42.31-59.79A41.31,41.31,0,0,0,658.25,828L489.4,784.24A45,45,0,0,1,459,757.34l-6-15.16L664.59,762l-1.87,19.91L502.15,766.88l161.11,41.73a61.27,61.27,0,0,1,34.6,23.89l42.31,59.78a43.78,43.78,0,0,0,14.23,12.81l.09.06L868,970.52l10.12-12-22.51-48.14a22.54,22.54,0,0,1,10.68-29.81l38.38-18.33,140.65,11.21-1.58,19.93-135.3-10.78-33.53,16a2.49,2.49,0,0,0-1.18,3.3l27.92,59.72-20.33,24.14A15.87,15.87,0,0,1,869,991.7Z" transform="translate(-397.61 -632.08)"/><polygon points="767.42 363.75 720.55 331.67 727.94 267.81 683.72 264.28 685.3 244.34 750.19 249.52 741.8 321.98 761.22 335.28 781.59 301.49 825.33 283.53 844.13 248.54 756.54 168.4 750.54 215.68 666.02 188.64 672.12 169.59 733.73 189.3 741.57 127.58 869.11 244.3 839.55 299.31 795.3 317.47 767.42 363.75"/><path d="M934.71,845.58c-7.91,0-33.74-3.2-147.51-30.76-65.64-15.91-129.33-32.37-130-32.54l-7.49-1.94V772.6a17.48,17.48,0,0,1,6-13.06c6.48-5.83,15.84-7.16,21.88-6.53,22.44,2.34,73.89,7.62,113,11.5l-2,19.9c-21.73-2.15-47.27-4.74-69.53-7,21.28,5.35,46.52,11.62,72.08,17.81,121.08,29.35,140.82,30.63,144,30.33,10.77-1.35,53.83-21,94.75-40.87-50.92,4.63-120.38,10.16-162.47,7-13-1-25.88-2.13-47.38-4.18L822,767.54c21.35,2,34.09,3.16,47,4.14,47,3.58,131.08-4.29,181.34-9,12.55-1.18,23.4-2.19,31-2.78l49.85-3.83-44.53,22.71c-.31.16-31.25,15.93-64.56,31.84-61.52,29.37-77.65,33.9-84.44,34.75A22,22,0,0,1,934.71,845.58Z" transform="translate(-397.61 -632.08)"/><path d="M794.64,982.21a42,42,0,0,1-21.63-6l-180.35-108a31.76,31.76,0,0,1-15.35-24.92L574.17,800l20-1.44,3.14,43.38a11.75,11.75,0,0,0,5.67,9.21l180.35,108a22.37,22.37,0,0,0,29.76-6.4l3.28-4.71,16.41,11.42-3.28,4.72A42.38,42.38,0,0,1,794.64,982.21Z" transform="translate(-397.61 -632.08)"/><polygon points="815.92 217.07 739.03 152.64 790.97 87.91 806.57 100.43 766.88 149.88 814.66 189.92 832.58 171.82 846.79 185.88 815.92 217.07"/><path d="M1083.49,936.62c-.83,0-1.66,0-2.5-.07l-67.41-3.95a36.67,36.67,0,0,1-25.18-12.06l-35.3-39,14.82-13.42,35.3,39a16.78,16.78,0,0,0,11.53,5.52l67.41,4a23,23,0,0,0,21.55-12.09l9.8-18.41,17.65,9.4-9.8,18.41A43,43,0,0,1,1083.49,936.62Z" transform="translate(-397.61 -632.08)"/><rect x="869.61" y="810.74" width="20" height="70.32" transform="translate(-738.17 234.35) rotate(-44.84)"/><rect x="656.28" y="791.68" width="66.23" height="20" transform="translate(-706.82 -177.86) rotate(-30.12)"/><rect x="1169.14" y="830.1" width="20" height="127.79" transform="translate(-199.85 1369.38) rotate(-85.62)"/><rect x="1191.93" y="790.58" width="20" height="131.91" transform="translate(-403.59 1072.52) rotate(-70.55)"/><path d="M1149.65,835.87l-19.83-2.61,9.35-71-20.71,1.1a13.89,13.89,0,0,0-5.87,1.64l-.23.13L1027.68,808l-9-17.85,84.57-42.77a34.1,34.1,0,0,1,14.18-4l28.18-1.48A13.78,13.78,0,0,1,1160,757.19l0,.2Z" transform="translate(-397.61 -632.08)"/><path d="M992.48,1097.35A49.59,49.59,0,0,1,951.37,1020l16.58,11.2a29.57,29.57,0,1,0,24.53-13v-20a49.58,49.58,0,0,1,0,99.16Z" transform="translate(-397.61 -632.08)"/><path d="M1193.15,1092c7.46-13.77,13.84-62.66-14.67-101.9-31.41-43.23-92.34-45.06-125.08-46.05l-3-.09c-52.7-1.67-102.52-1.23-103-1.23l-4.36,0-50.22,55.05,24.48-1.39c51.52-2.93,135.25,12.3,154.84,19.69,23.88,9,31,23.19,35.12,37.19a91.38,91.38,0,0,1,2.54,14.24c1.79,14.33,4,32.16,25.28,42.89a46.78,46.78,0,0,0,21.08,5.3C1171.17,1115.74,1184.8,1107.42,1193.15,1092ZM951.9,962.7c13.2-.06,54.53-.12,97.85,1.25l3,.09c29.31.88,83.86,2.53,109.5,37.82,24.12,33.19,16.68,74.31,13.27,80.62-3.33,6.14-13.06,19.42-31.5,10.11-11.23-5.67-12.68-13.34-14.46-27.53a105.73,105.73,0,0,0-3.2-17.41c-5-17-14.91-38.06-47.25-50.25-20-7.55-87.4-19.9-139.56-21.21Z" transform="translate(-397.61 -632.08)"/><path d="M1003.72,907.66l-35.54-39.22-27.85-2.89-58.09,65.62,54.1,47.93ZM948.49,886.5l10,1,18,19.85-41.39,43.88-24.62-21.81Z" transform="translate(-397.61 -632.08)"/><path d="M1025.91,1129.68h-52a65.15,65.15,0,0,1-60.76-41.1l-1.33-3.33c-.24-.69-6.12-17-11.55-35.19-10.35-34.56-10-44.53-8-50.15l18.88,6.61a3.12,3.12,0,0,0,.1-.34c-.13.7-1,7.74,8.57,39.48,4.88,16.17,10.15,31,10.75,32.65l1.13,2.83a45.26,45.26,0,0,0,42.2,28.54h52a32.38,32.38,0,0,0,23-9.68l10.07-10.3,14.3,14-10.07,10.3A52.46,52.46,0,0,1,1025.91,1129.68Z" transform="translate(-397.61 -632.08)"/><rect x="1075.17" y="1053.84" width="46.2" height="20" transform="translate(-827.81 473.17) rotate(-45.64)"/><rect x="775.83" y="1002.59" width="97.85" height="20" transform="translate(-877.82 329.35) rotate(-48.59)"/><rect x="850.12" y="991.67" width="105" height="20" transform="translate(-843.27 383.97) rotate(-48.59)"/><path d="M613.68,1160.74a27.74,27.74,0,0,1-8.73-54.06l174.6-62.3.94-.14,124.49-19,3,19.77-123.54,18.86-173,61.73-.14,0a7.74,7.74,0,0,0,3.63,15l180.93-29.18,118.42-46.72,7.34,18.61-120.43,47.51-183.07,29.53A27.83,27.83,0,0,1,613.68,1160.74Z" transform="translate(-397.61 -632.08)"/><rect x="607.36" y="1059.13" width="97.03" height="20" transform="translate(-444 -602.19) rotate(-2.52)"/><path d="M1430.62,1156.92a33.6,33.6,0,0,0,15.62-44.82L1276.86,761.53l-18,8.7,169.38,350.57a13.56,13.56,0,1,1-24.42,11.8L1195.74,701.93l-10.43-20-.42-.59a19.73,19.73,0,0,0-14.92-8.17l-39.16-2.09.66-17.4,49.68,2.69a13.23,13.23,0,0,1,10.23,5.92l20,29.72,9.24-.91L1259,771l19-8-39.56-81a19.45,19.45,0,0,0-17-10.94L1208,651.18a33.33,33.33,0,0,0-25.74-14.78l-53.71-2.9a16,16,0,0,0-16.93,15.33l-1,25.32a16.07,16.07,0,0,0,15.1,16.69l42.82,2.29,9.2,17.64,208,430.53a33.57,33.57,0,0,0,44.82,15.62ZM1130.66,675v0Zm-3.19-21.5h0Z" transform="translate(-397.61 -632.08)"/><rect x="593.59" y="830.88" width="59.28" height="20" transform="translate(-802.22 406.33) rotate(-64.33)"/><path d="M798.27,1167.64l-6.49-18.92c.78-.26,78.09-27,128.8-63.87L932.34,1101C879.16,1139.68,801.55,1166.52,798.27,1167.64Z" transform="translate(-397.61 -632.08)"/><rect x="1408.69" y="1175.81" width="20" height="19.25" transform="translate(-455.01 -559.79) rotate(-2.86)"/><rect x="1349.7" y="1121.29" width="19.25" height="20" transform="translate(-452.39 -562.81) rotate(-2.86)"/><rect x="1465.04" y="1115.53" width="19.25" height="20" transform="translate(-451.95 -557.06) rotate(-2.86)"/><rect x="1448.89" y="1157.79" width="20" height="19.25" transform="translate(-783.19 833.92) rotate(-47.86)"/><rect x="1445.84" y="1074.68" width="19.25" height="20" transform="translate(-722.96 804.15) rotate(-47.86)"/><rect x="1368.35" y="1160.32" width="19.25" height="20" transform="translate(-811.97 774.89) rotate(-47.86)"/><rect x="594.11" y="1178.15" width="17.57" height="20" transform="translate(-1016.44 1087.64) rotate(-86.61)"/><rect x="600.33" y="1073" width="17.57" height="20" transform="translate(-905.62 994.91) rotate(-86.61)"/><rect x="544.43" y="1124.37" width="20" height="17.57" transform="translate(-1007.12 987.56) rotate(-86.61)"/><rect x="631.14" y="1167.02" width="20" height="17.57" transform="translate(-1016.65 90.38) rotate(-41.61)"/><rect x="561.19" y="1088.27" width="20" height="17.56" transform="translate(-982.01 24.09) rotate(-41.61)"/><rect x="558.68" y="1160.4" width="17.57" height="20" transform="translate(-1031.66 40.12) rotate(-41.61)"/><path class="cls-8" d="M1248,741" transform="translate(-397.61 -632.08)"/></svg>