<svg id="Layer_1" data-name="Layer 1" xmlns="http://www.w3.org/2000/svg" viewBox="0 0 411.76 222.39"><defs><style>.cls-1{fill:#819098;}.cls-2{fill:#6d7c84;}.cls-3{fill:#45545c;}.cls-4{fill:#95a4ac;}.cls-5{fill:#d1e0e8;}.cls-6{fill:#bdccd4;}.cls-7{fill:#596870;}.cls-8{fill:#0d6efd;}.cls-9{fill:#e5f4fc;}</style></defs><path class="cls-1" d="M48.71,295.81c0,32.42,28.19,58.71,63,58.71s63-26.29,63-58.71-28.19-58.7-63-58.7S48.71,263.39,48.71,295.81Zm23.25,0c0-20.44,17.78-37,39.71-37s39.72,16.58,39.72,37-17.78,37-39.72,37S72,316.26,72,295.81Z" transform="translate(-41.5 -138.8)"/><path class="cls-2" d="M62,295.81c0,25.56,22.23,46.28,49.64,46.28s49.65-20.72,49.65-46.28-22.23-46.28-49.65-46.28S62,270.25,62,295.81Zm9.93,0c0-20.44,17.78-37,39.71-37s39.72,16.58,39.72,37-17.78,37-39.72,37S72,316.26,72,295.81Z" transform="translate(-41.5 -138.8)"/><path d="M158.57,339.53c12.52-11.68,19.42-27.2,19.42-43.72s-6.9-32-19.42-43.71a69.77,69.77,0,0,0-93.79,0c-12.52,11.68-19.42,27.2-19.42,43.71s6.9,32,19.42,43.72a69.8,69.8,0,0,0,93.79,0Zm-4.73-83a53,53,0,0,1,0,78.61,62.74,62.74,0,0,1-84.33,0,53,53,0,0,1,0-78.61,62.74,62.74,0,0,1,84.33,0Z" transform="translate(-41.5 -138.8)"/><path d="M111.67,336a44.39,44.39,0,0,1-30.56-11.87l4.75-4.39a37.49,37.49,0,0,0,25.81,10c20.06,0,36.38-15.21,36.38-33.91s-16.32-33.9-36.38-33.9S75.3,277.12,75.3,295.81a31.62,31.62,0,0,0,3.36,14.24l-6.07,2.62a37.49,37.49,0,0,1-4-16.86c0-22.13,19.32-40.14,43.06-40.14s43.07,18,43.07,40.14S135.42,336,111.67,336Z" transform="translate(-41.5 -138.8)"/><polygon points="22.7 117.56 17.93 113.17 22.64 108.74 27.4 113.13 22.7 117.56"/><polygon points="117.72 205.2 112.94 200.79 117.64 196.35 122.42 200.76 117.72 205.2"/><polygon points="23.84 206.23 19.08 201.84 23.3 197.87 28.05 202.26 23.84 206.23"/><polygon points="117.76 117.72 113.01 113.34 117.77 108.85 122.52 113.24 117.76 117.72"/><rect x="41.51" y="293.57" width="6.74" height="6.24" transform="translate(-43.21 -138.54) rotate(-0.33)"/><rect x="175.11" y="292.9" width="6.74" height="6.24" transform="translate(-43.2 -137.77) rotate(-0.33)"/><rect x="109.31" y="354.57" width="6.69" height="6.61" transform="translate(-43.57 -138.15) rotate(-0.33)"/><rect x="108.59" y="230.36" width="6.69" height="6.32" transform="translate(-42.85 -138.15) rotate(-0.33)"/><polygon points="10.04 137.87 3.77 135.5 6.29 129.72 12.56 132.09 10.04 137.87"/><polygon points="133.81 184.79 127.58 182.43 130.1 176.65 136.33 179.01 133.81 184.79"/><polygon points="47.59 219.03 41.39 216.69 44.22 210.2 50.42 212.55 47.59 219.03"/><polygon points="97.91 103.68 91.71 101.33 94.27 95.47 100.46 97.82 97.91 103.68"/><polygon points="129.72 137.76 127.11 132.01 133.87 129.36 136.47 135.1 129.72 137.76"/><polygon points="7.14 185.96 4.54 180.22 10.27 177.96 12.87 183.71 7.14 185.96"/><polygon points="94.68 218.34 92.08 212.59 98.24 210.16 100.85 215.91 94.68 218.34"/><polygon points="42.76 103.6 40.12 97.77 46.29 95.34 48.93 101.17 42.76 103.6"/><polygon points="35.66 114.6 28.75 105 34.31 101.52 41.22 111.12 35.66 114.6"/><polygon points="106.05 212.41 99.18 202.87 104.74 199.39 111.61 208.94 106.05 212.41"/><polygon points="14.93 196.25 11.21 191.06 21.44 184.66 25.17 189.84 14.93 196.25"/><polygon points="119.84 130.64 116.11 125.46 126.39 119.03 130.12 124.21 119.84 130.64"/><polygon points="13.49 150.31 1.36 148.09 2.65 141.97 14.78 144.2 13.49 150.31"/><polygon points="137.47 173.09 125.36 170.86 126.65 164.74 138.76 166.97 137.47 173.09"/><polygon points="60.66 221.12 54.09 219.91 56.47 208.66 63.03 209.86 60.66 221.12"/><polygon points="85.08 105.58 78.51 104.37 80.91 93.03 87.47 94.24 85.08 105.58"/><polygon points="20.68 130.44 10.34 124.04 14.04 118.84 24.38 125.24 20.68 130.44"/><polygon points="125.94 195.6 115.66 189.23 119.36 184.04 129.64 190.4 125.94 195.6"/><polygon points="35.26 212.99 29.68 209.54 36.51 199.96 42.08 203.41 35.26 212.99"/><polygon points="105.14 114.86 99.57 111.42 106.43 101.78 112 105.23 105.14 114.86"/><polygon points="126.87 150.24 125.54 144.12 137.69 141.84 139.01 147.95 126.87 150.24"/><polygon points="3 173.56 1.68 167.44 13.79 165.16 15.11 171.28 3 173.56"/><polygon points="80.96 220.92 78.52 209.66 85.08 208.43 87.52 219.68 80.96 220.92"/><polygon points="55.95 105.47 53.49 94.12 60.05 92.88 62.51 104.23 55.95 105.47"/><path class="cls-3" d="M281.27,268.29,261.76,286.9a14.67,14.67,0,0,1-10.09,4h-17.4A18.59,18.59,0,0,1,217.05,280l-.4-.93s-7.8-19.74-6.35-23.61,29.39-30.76,29.39-30.76l48.79-3.38Z" transform="translate(-41.5 -138.8)"/><ellipse class="cls-4" cx="198.99" cy="129.63" rx="13.24" ry="12.34"/><polygon class="cls-3" points="183.63 75.71 161.75 99.28 151.25 76.28 183.63 75.71"/><ellipse class="cls-5" cx="70.18" cy="157.01" rx="21.51" ry="20.06"/><path d="M136.53,295.81c0-12.77-11.15-23.17-24.86-23.17S86.82,283,86.82,295.81,98,319,111.67,319,136.53,308.59,136.53,295.81Zm-6.69,0c0,9.34-8.15,16.94-18.17,16.94s-18.16-7.6-18.16-16.94,8.15-16.93,18.16-16.93S129.84,286.47,129.84,295.81Z" transform="translate(-41.5 -138.8)"/><path d="M112.43,319v-6.24c.14,0,14.45-.1,34.55-6.13l2.05,5.93C127.84,318.91,113,319,112.43,319Z" transform="translate(-41.5 -138.8)"/><path class="cls-6" d="M215.55,276.63l-40,14.69-60.88,9.15a5.92,5.92,0,0,1-6.73-4.25h0a5.5,5.5,0,0,1,4-6.47l58.14-19.33,41.64-5.93Z" transform="translate(-41.5 -138.8)"/><path class="cls-6" d="M183.2,240.56a11.29,11.29,0,0,1-14.41,2.89l-60.33-33.67a6.72,6.72,0,0,1-3.51-5.32l-1.06-13.53.07-.23,25.56,6.17a17.17,17.17,0,0,1,9.68,6.24l14.16,18.64a17.44,17.44,0,0,0,5.85,4.91l24.47,13.13Z" transform="translate(-41.5 -138.8)"/><path class="cls-7" d="M112.73,212.16l-4.27-2.38a6.72,6.72,0,0,1-3.51-5.32l-1.06-13.53.07-.23,17.49,4.23Z" transform="translate(-41.5 -138.8)"/><ellipse class="cls-5" cx="341.13" cy="154.72" rx="22.51" ry="20.98"/><path class="cls-1" d="M316.73,293.53c0,33.59,29.21,60.82,65.24,60.82s65.23-27.23,65.23-60.82S418,232.72,382,232.72,316.73,260,316.73,293.53Zm17.55,0c0-24.55,21.35-44.45,47.69-44.45s47.68,19.9,47.68,44.45S408.3,338,382,338,334.28,318.09,334.28,293.53Z" transform="translate(-41.5 -138.8)"/><path d="M430.46,338.74c13-12.07,20.09-28.13,20.09-45.21s-7.14-33.13-20.09-45.2a72.15,72.15,0,0,0-97,0c-13,12.07-20.08,28.13-20.08,45.2s7.13,33.14,20.08,45.21a72.15,72.15,0,0,0,97,0Zm-4.73-86a55,55,0,0,1,0,81.59,65.12,65.12,0,0,1-87.53,0,55,55,0,0,1,0-81.59,65.12,65.12,0,0,1,87.53,0Z" transform="translate(-41.5 -138.8)"/><path d="M382,252.2c-24.45,0-44.34,18.54-44.34,41.33s19.89,41.34,44.34,41.34,44.34-18.54,44.34-41.34c0-13-6.37-25-17.47-32.88l4.05-5a49.09,49.09,0,0,1,14.64,16.39A44.52,44.52,0,0,1,433,293.53c0,26.24-22.89,47.58-51,47.58s-51-21.34-51-47.58S353.83,246,382,246a54.28,54.28,0,0,1,16.6,2.58l-2.17,5.89" transform="translate(-41.5 -138.8)"/><polygon points="292.31 114.65 287.47 110.19 292.18 105.76 297.01 110.22 292.31 114.65"/><polygon points="388.77 203.61 383.91 199.14 388.62 194.7 393.47 199.18 388.77 203.61"/><polygon points="293.39 204.66 288.64 200.28 292.92 196.24 297.67 200.63 293.39 204.66"/><polygon points="388.74 114.81 383.99 110.43 388.81 105.88 393.57 110.26 388.74 114.81"/><rect x="310.74" y="291.3" width="6.84" height="6.24" transform="translate(-43.19 -136.98) rotate(-0.33)"/><rect x="446.36" y="290.62" width="6.84" height="6.24" transform="translate(-43.19 -136.2) rotate(-0.33)"/><rect x="379.62" y="353.18" width="6.69" height="6.71" transform="translate(-43.54 -136.59) rotate(-0.33)"/><rect x="378.89" y="227.09" width="6.69" height="6.42" transform="translate(-42.82 -136.59) rotate(-0.33)"/><polygon points="279.44 135.26 273.07 132.85 275.59 127.07 281.96 129.48 279.44 135.26"/><polygon points="405.08 182.89 398.76 180.49 401.28 174.71 407.6 177.11 405.08 182.89"/><polygon points="317.49 217.68 311.3 215.33 314.17 208.74 320.37 211.09 317.49 217.68"/><polygon points="368.57 100.58 362.37 98.23 364.97 92.28 371.17 94.63 368.57 100.58"/><polygon points="400.89 135.14 398.29 129.4 405.14 126.7 407.74 132.45 400.89 135.14"/><polygon points="276.46 184.08 273.86 178.33 279.67 176.04 282.27 181.79 276.46 184.08"/><polygon points="365.39 216.97 362.75 211.13 368.91 208.7 371.56 214.54 365.39 216.97"/><polygon points="312.69 100.49 310.01 94.57 316.17 92.15 318.85 98.07 312.69 100.49"/><polygon points="304.81 110.73 297.65 100.78 303.21 97.31 310.37 107.25 304.81 110.73"/><polygon points="377.73 212.06 370.62 202.18 376.17 198.7 383.29 208.59 377.73 212.06"/><polygon points="283.17 195.28 279.44 190.1 290.05 183.47 293.77 188.65 283.17 195.28"/><polygon points="391.85 127.32 388.13 122.14 398.78 115.48 402.5 120.66 391.85 127.32"/><polygon points="281.76 147.69 269.2 145.38 270.49 139.26 283.06 141.56 281.76 147.69"/><polygon points="410.2 171.28 397.66 168.97 398.95 162.85 411.5 165.16 410.2 171.28"/><polygon points="330.49 221.13 323.92 219.92 326.39 208.26 332.95 209.46 330.49 221.13"/><polygon points="355.79 101.42 349.22 100.22 351.7 88.47 358.27 89.68 355.79 101.42"/><polygon points="289.25 127.11 278.54 120.48 282.24 115.28 292.95 121.92 289.25 127.11"/><polygon points="398.31 194.61 387.65 188.02 391.35 182.82 402.01 189.42 398.31 194.61"/><polygon points="304.19 212.66 298.62 209.21 305.69 199.28 311.26 202.73 304.19 212.66"/><polygon points="376.59 111.01 371.02 107.56 378.13 97.57 383.7 101.02 376.59 111.01"/><polygon points="399.18 147.6 397.85 141.49 410.43 139.12 411.75 145.24 399.18 147.6"/><polygon points="270.86 171.76 269.53 165.65 282.07 163.29 283.4 169.4 270.86 171.76"/><polygon points="351.76 220.92 349.23 209.25 355.79 208.02 358.31 219.68 351.76 220.92"/><polygon points="325.85 101.31 323.3 89.55 329.86 88.32 332.4 100.08 325.85 101.31"/><path d="M408.48,293.52c0-13.29-11.6-24.1-25.85-24.1s-25.85,10.81-25.85,24.1,11.59,24.1,25.85,24.1S408.48,306.81,408.48,293.52Zm-6.69,0c0,9.85-8.6,17.86-19.16,17.86s-19.16-8-19.16-17.86,8.59-17.86,19.16-17.86S401.79,283.67,401.79,293.52Z" transform="translate(-41.5 -138.8)"/><path class="cls-5" d="M385.31,299.79l.56-.25a6.86,6.86,0,0,0,3.52-9.43L320.5,157.18a2,2,0,0,0-2.59-.84l-10.7,4.82a1.74,1.74,0,0,0-.9,2.41L375.2,296.5A7.83,7.83,0,0,0,385.31,299.79Z" transform="translate(-41.5 -138.8)"/><polygon class="cls-8" points="329.67 152.05 343.86 145.65 322.92 102.66 308.73 109.06 329.67 152.05"/><polygon class="cls-2" points="282.33 58.47 296.51 52.07 302.15 62.66 287.97 69.06 282.33 58.47"/><polygon class="cls-2" points="263.46 23.14 277.64 16.74 283.29 27.33 269.1 33.73 263.46 23.14"/><path class="cls-5" d="M225.42,238.8s16.56-.15,34.33.38c10,.29,30.38.45,40.25,13.1,8.77,11.26,6.51,25.28,4.67,28.46-2.93,5-8.56,7.48-15,4.45-7.64-3.6-5.76-10.09-7.6-15.91-1.42-4.49-4.12-10.24-13.78-13.64-7.33-2.57-36-7.24-53.16-6.33Z" transform="translate(-41.5 -138.8)"/><polygon class="cls-4" points="157.31 127.53 180 103.88 166.36 93.5 133.91 129.01 157.31 127.53"/><polygon class="cls-2" points="166.83 93 180 103.88 198.19 85.89 189.24 76.69 182.91 76.07 166.83 93"/><path class="cls-9" d="M284.09,219.14l-3.45,6.08a11.18,11.18,0,0,1-10.35,5.42l-22.55-1.23a9.29,9.29,0,0,1-6.14-2.74L230.47,215Z" transform="translate(-41.5 -138.8)"/><path class="cls-9" d="M289.74,202l3.46-24.47a1.22,1.22,0,0,0-1.33-1.31l-9.42.46a8.4,8.4,0,0,0-3.38.89l-26.51,13.34Z" transform="translate(-41.5 -138.8)"/><polygon class="cls-2" points="267.19 29.36 251.87 47.17 272.72 63.46 280.88 55.77 267.19 29.36"/><path class="cls-8" d="M252.56,190.86,289.74,202l2.32-17,36,30.7-8.09,14-14.72,5.63-8.07,12.49-11.08-7.08,2.63-21.25-76.95-5.72-82.24-16.88L73,183.24a11.42,11.42,0,0,1-7.91-6.52h0l65.36,5.71Z" transform="translate(-41.5 -138.8)"/><path class="cls-1" d="M221.73,202.23c-7.6.89-92.55-19.6-92.55-19.6,0-2.17,3.33-3.24,5.64-3,12.65,1.23,49.67,4.81,64.11,5.83,19.95,1.41,58.86-2.76,71.54-3.67C270.47,181.78,229.34,201.34,221.73,202.23Z" transform="translate(-41.5 -138.8)"/><path class="cls-8" d="M148.68,186.51l-19.16,10.36a17.17,17.17,0,0,1,9.68,6.24l14.16,18.64a17.44,17.44,0,0,0,5.85,4.91L197,247.59a2.91,2.91,0,0,0,3.56-.68l5.59-5.83-8.44-16.82a3.79,3.79,0,0,1,2-5.16l12-5.35-.74-.49-16.59-15.55Z" transform="translate(-41.5 -138.8)"/><path class="cls-1" d="M314.87,154.85l-5.68-9.21a5.64,5.64,0,0,0-4.31-2.31l-21.1-1.08-.5,11.66,17.94.91,3.63,4.68Z" transform="translate(-41.5 -138.8)"/><path class="cls-8" d="M337.42,189.83l6.91-2.22s2-15.08,1.17-18.16c-.87-3.26-21.82-23.59-25.78-27.41a1.09,1.09,0,0,0-1.37-.09l-4.77,3.38Z" transform="translate(-41.5 -138.8)"/><path class="cls-8" d="M372.8,188.88A65.69,65.69,0,0,1,402.9,197l23.88,13.27h0a1.65,1.65,0,0,1-1.78,1l-31.37-4.56a17.23,17.23,0,0,1-5.53-1.78l-1-.52a17,17,0,0,0-8.69-1.88l-33.54,1.66-8.25-16.59Z" transform="translate(-41.5 -138.8)"/><polygon points="289.42 71.87 286.51 66.25 300.7 59.85 303.61 65.47 289.42 71.87"/><polygon points="283.78 61.27 280.87 55.66 295.06 49.26 297.97 54.87 283.78 61.27"/><polygon points="271.86 38.02 268.94 32.41 283.13 26 286.05 31.62 271.86 38.02"/><polygon points="263.2 24.09 260.29 18.48 274.48 12.08 277.39 17.7 263.2 24.09"/><polygon points="310.19 111.87 307.28 106.25 321.46 99.85 324.38 105.47 310.19 111.87"/><polygon points="331.13 154.86 328.21 149.25 342.4 142.85 345.31 148.46 331.13 154.86"/><path d="M425.25,214.41a4.85,4.85,0,0,1-.76,0l-31.38-4.56a20.76,20.76,0,0,1-6.64-2.14l-1-.52a13.43,13.43,0,0,0-6.87-1.49L345,207.31l-.35-6.22,33.55-1.67a20.52,20.52,0,0,1,10.49,2.28l1,.52a13.76,13.76,0,0,0,4.4,1.42l19.11,2.77-12.06-6.7A62.22,62.22,0,0,0,372.71,192h0l-36.18-1.27.25-6.23,36.16,1.27a69.19,69.19,0,0,1,31.71,8.59l26.24,14.57-.94,2.42A5,5,0,0,1,425.25,214.41Z" transform="translate(-41.5 -138.8)"/><path d="M347.65,188l-6.64-.76c.89-6.78,1.61-15.06,1.26-16.93C341.1,168,331.55,158,318.75,145.59l-3.86,2.72-4-5,5.08-3.57a5.16,5.16,0,0,1,6.54.45c2.39,2.3,8.55,8.29,14.23,14.11,11.31,11.58,11.77,13.34,12.05,14.38C349.64,172.07,348.13,184.32,347.65,188Z" transform="translate(-41.5 -138.8)"/><path d="M199.16,251a5.48,5.48,0,0,1-2.57-.63h0l-39-20.94a21,21,0,0,1-6.93-5.82l-14.15-18.64a13.82,13.82,0,0,0-7.79-5L72.2,186.26A14.76,14.76,0,0,1,62,177.87l-2-4.73,70.79,6.19-.62,6.21-53.71-4.7,53.89,13a20.54,20.54,0,0,1,11.57,7.44L156.09,220a14.38,14.38,0,0,0,4.75,4l0,0,38,20.38,3.38-3.74-7.53-15a6.83,6.83,0,0,1,3.58-9.3l12.84-5.72,47,3.5-.53,6.21-45.25-3.36-11.22,5a.75.75,0,0,0-.4,1l9.35,18.62-6.81,7.53A5.42,5.42,0,0,1,199.16,251Z" transform="translate(-41.5 -138.8)"/><polygon points="256.7 113.43 241.03 103.43 243.5 83.51 228.71 82.41 229.24 76.2 250.94 77.81 248.13 100.41 254.63 104.55 261.44 94.01 276.07 88.41 282.36 77.5 253.07 52.51 251.06 67.26 222.79 58.83 224.83 52.88 245.43 59.03 248.06 39.78 290.72 76.18 280.83 93.33 266.03 99 256.7 113.43"/><path d="M221.16,205.38c-2.65,0-11.29-1-49.34-9.59-22-5-43.27-10.09-43.48-10.14l-2.51-.61v-2.41a5.31,5.31,0,0,1,2-4.08,10.37,10.37,0,0,1,7.31-2c7.51.73,24.72,2.37,37.81,3.58l-.66,6.21c-7.27-.67-15.81-1.48-23.26-2.19,7.12,1.67,15.56,3.63,24.11,5.56,40.51,9.15,47.11,9.55,48.17,9.45,3.6-.42,18-6.55,31.69-12.74-17,1.44-40.27,3.17-54.35,2.17-4.36-.31-8.65-.66-15.84-1.3l.63-6.21c7.15.63,11.41,1,15.72,1.29,15.71,1.11,43.84-1.34,60.66-2.8,4.2-.37,7.82-.68,10.37-.87l16.68-1.19L272,184.56c-.1.05-10.45,5-21.6,9.93-20.57,9.16-26,10.57-28.24,10.83A7,7,0,0,1,221.16,205.38Z" transform="translate(-41.5 -138.8)"/><path d="M174.3,248a14.84,14.84,0,0,1-7.23-1.86l-60.33-33.67a9.86,9.86,0,0,1-5.13-7.78l-1-13.52,6.67-.46,1,13.53a3.65,3.65,0,0,0,1.9,2.88l60.33,33.67a7.82,7.82,0,0,0,10-2l1.1-1.47,5.49,3.56-1.1,1.48A14.53,14.53,0,0,1,174.3,248Z" transform="translate(-41.5 -138.8)"/><polygon points="272.93 67.69 247.21 47.6 264.58 27.41 269.8 31.32 256.52 46.74 272.51 59.22 278.5 53.58 283.26 57.97 272.93 67.69"/><path d="M270.93,233.77c-.28,0-.56,0-.84,0l-22.55-1.23a12.62,12.62,0,0,1-8.42-3.76l-11.81-12.15,5-4.19,11.81,12.15a5.77,5.77,0,0,0,3.85,1.72l22.55,1.23a7.78,7.78,0,0,0,7.21-3.77L281,218l5.9,2.93-3.27,5.74A14.58,14.58,0,0,1,270.93,233.77Z" transform="translate(-41.5 -138.8)"/><polygon points="167.16 76.65 150.57 61.1 155.31 56.7 171.9 72.25 167.16 76.65"/><polygon points="89.7 60.77 86.34 55.37 105.51 45.01 108.86 50.4 89.7 60.77"/><polygon points="282.48 86.3 239.86 83.26 240.37 77.04 282.99 80.09 282.48 86.3"/><polygon points="288.74 79.78 247.13 66.08 249.36 60.2 290.97 73.9 288.74 79.78"/><path d="M293.06,202.36l-6.63-.82,3.12-22.14-6.93.35a4.91,4.91,0,0,0-2,.51l-.08,0-28.32,13.35-3-5.56,28.29-13.34a11.89,11.89,0,0,1,4.74-1.23l9.43-.47a4.8,4.8,0,0,1,3.59,1.35,4.09,4.09,0,0,1,1.23,3.42v.06Z" transform="translate(-41.5 -138.8)"/><path d="M240.48,283.89c-9.14,0-16.58-6.93-16.58-15.46a14.69,14.69,0,0,1,2.83-8.64l5.55,3.49a8.68,8.68,0,0,0-1.69,5.15c0,5.09,4.44,9.23,9.89,9.23s9.9-4.14,9.9-9.23-4.44-9.22-9.9-9.22V253c9.15,0,16.59,6.94,16.59,15.46S249.63,283.89,240.48,283.89Z" transform="translate(-41.5 -138.8)"/><path d="M307.61,282.23c2.5-4.3,4.63-19.54-4.91-31.78-10.51-13.48-30.89-14-41.84-14.36l-1,0c-17.63-.52-34.29-.38-34.46-.38h-1.45l-16.8,17.17,8.19-.44c17.23-.91,45.24,3.84,51.79,6.14,8,2.81,10.37,7.24,11.75,11.6a28.18,28.18,0,0,1,.85,4.44c.6,4.47,1.34,10,8.45,13.38a16.63,16.63,0,0,0,7.05,1.65A14.14,14.14,0,0,0,307.61,282.23Zm-80.7-40.32c4.41,0,18.24,0,32.73.38l1,0c9.8.28,28,.79,36.63,11.8,8.07,10.35,5.58,23.17,4.44,25.14s-4.37,6.05-10.54,3.15c-3.76-1.77-4.24-4.16-4.84-8.58a30.58,30.58,0,0,0-1.06-5.43c-1.68-5.3-5-11.87-15.81-15.67-6.7-2.36-29.24-6.21-46.68-6.62Z" transform="translate(-41.5 -138.8)"/><path d="M244.24,224.74l-11.88-12.23-9.32-.9-19.43,20.46,18.09,15Zm-18.47-6.6,3.35.33,6,6.19-13.84,13.68-8.24-6.8Z" transform="translate(-41.5 -138.8)"/><path d="M251.67,294h-17.4c-9,0-17-5-20.33-12.82l-.44-1c-.08-.21-2.05-5.31-3.86-11-3.47-10.78-3.33-13.89-2.68-15.64l6.32,2.06,0-.1c0,.21-.34,2.41,2.87,12.31,1.63,5,3.39,9.65,3.6,10.18l.37.88a15.17,15.17,0,0,0,14.12,8.9h17.4a11.2,11.2,0,0,0,7.69-3l3.37-3.21,4.79,4.36-3.37,3.21A18.23,18.23,0,0,1,251.67,294Z" transform="translate(-41.5 -138.8)"/><polygon points="231.37 141.97 226.58 137.61 237.39 127.31 242.17 131.67 231.37 141.97"/><polygon points="134.57 132.16 129.55 128.04 151.2 105.15 156.22 109.28 134.57 132.16"/><polygon points="159.82 129.59 154.8 125.47 178.03 100.91 183.05 105.04 159.82 129.59"/><path d="M113.78,303.66a9.18,9.18,0,0,1-9.06-6.76,8.56,8.56,0,0,1,6.13-10.1l58.41-19.42.31-.05,41.65-5.92,1,6.16-41.33,5.88L113,292.7l0,0a2.39,2.39,0,0,0-1.73,2.82,2.59,2.59,0,0,0,2.94,1.85l60.52-9.09,39.61-14.57,2.46,5.8-40.29,14.82-61.23,9.2A9.39,9.39,0,0,1,113.78,303.66Z" transform="translate(-41.5 -138.8)"/><polygon points="70.33 140.07 70.03 133.84 102.45 132.51 102.75 138.74 70.33 140.07"/><path d="M387,302.47c5.58-2.51,7.92-8.78,5.23-14L335.61,179.17l-6,2.72,56.65,109.32a4.11,4.11,0,0,1-2.11,5.65,4.81,4.81,0,0,1-3.46.18,4.39,4.39,0,0,1-2.59-2.15l-69.61-134.3L305,154.35l-.14-.18a6.73,6.73,0,0,0-5-2.55L286.76,151l.21-5.43,16.62.84a4.53,4.53,0,0,1,3.43,1.85l6.69,9.26,3.09-.28,12.84,24.92,6.35-2.5-13.23-25.25a6.56,6.56,0,0,0-5.7-3.42l-4.48-6.2a11.36,11.36,0,0,0-8.61-4.61l-18-.9a5.53,5.53,0,0,0-3.89,1.27,4.83,4.83,0,0,0-1.77,3.51l-.32,7.89a5.17,5.17,0,0,0,5.05,5.21l14.33.71,3.07,5.5L372.05,297.6a11.35,11.35,0,0,0,10.13,5.91A11.78,11.78,0,0,0,387,302.47ZM286.71,152.18v0Zm-1.07-6.71h0Z" transform="translate(-41.5 -138.8)"/><polygon points="74.19 74.79 68.16 72.09 76.75 55.43 82.78 58.13 74.19 74.79"/><path d="M175.52,305.81l-2.17-5.89c.26-.09,26.12-8.43,43.08-19.92l3.94,5C202.58,297.09,176.62,305.46,175.52,305.81Z" transform="translate(-41.5 -138.8)"/><polygon points="338.38 175.71 338.06 169.72 344.74 169.4 345.06 175.4 338.38 175.71"/><polygon points="318.65 158.94 318.32 152.71 324.75 152.41 325.08 158.64 318.65 158.94"/><polygon points="357.23 157.14 356.9 150.91 363.33 150.61 363.66 156.84 357.23 157.14"/><polygon points="355.15 171.27 350.37 167.24 354.86 162.61 359.64 166.64 355.15 171.27"/><polygon points="354.18 145.46 349.22 141.27 353.54 136.82 358.5 141 354.18 145.46"/><polygon points="328.26 172.16 323.3 167.98 327.62 163.53 332.58 167.71 328.26 172.16"/><polygon points="71.83 176.32 65.16 175.95 65.5 170.49 72.18 170.85 71.83 176.32"/><polygon points="73.92 143.53 67.24 143.16 67.58 137.69 74.26 138.06 73.92 143.53"/><polygon points="55.19 159.53 49.33 159.21 49.72 152.98 55.59 153.3 55.19 159.53"/><polygon points="80.91 173.67 77.01 169.58 82.01 165.44 85.91 169.53 80.91 173.67"/><polygon points="57.51 149.11 53.61 145.02 58.61 140.88 62.52 144.97 57.51 149.11"/><polygon points="56.84 172.02 52.4 167.36 56.79 163.72 61.23 168.38 56.84 172.02"/></svg>