<svg id="Layer_1" data-name="Layer 1" xmlns="http://www.w3.org/2000/svg" viewBox="0 0 1277.21 333.69"><defs><style>.cls-1{fill:#fff;}.cls-2{fill:#819098;}.cls-3{fill:#6d7c84;}.cls-4{fill:#45545c;}.cls-5{fill:#95a4ac;}.cls-6{fill:#d1e0e8;}.cls-7{fill:#bdccd4;}.cls-8{fill:#596870;}.cls-9{fill:#0d6efd;}.cls-10{fill:#e5f4fc;}</style></defs><path class="cls-1" d="M896.38,441c6.77-21.55,13.08-42,19.76-62.34.82-2.47,3.61-5.85,5.58-5.92,13.33-.53,26.68-.28,40.25-.28-1,39.09-2,77.49-2.94,116.37H931V412.94c-8,26.37-15.47,51-23.15,76.36-8.48,0-17,.31-25.38-.25-1.78-.12-4.42-3.14-4.91-5.29-5-22.3-9.62-44.69-14.36-67.06H861c-1.37,23.91-2.74,47.82-4.14,72.15H829.33c2.94-38.48,5.87-76.93,8.84-115.89h43.5C886.45,395,891.26,417.3,896.38,441Z" transform="translate(-135.27 -260.87)"/><path class="cls-1" d="M1200.62,489.31c-10.63,0-20.93.26-31.2-.24-1.94-.1-4.62-2.9-5.44-5.13a208.91,208.91,0,0,1-6.52-21.62c-1.16-4.65-3.42-6.16-7.72-6-9,.3-18,.38-27,0-4.68-.21-6.8,1.91-8.59,6.31-3.61,8.94-7.78,17.62-11.71,26.4h-36.22a55.91,55.91,0,0,1,1.94-5.36c16.92-35.05,33.94-70,50.71-105.16,2-4.27,4.06-6.36,8.72-6.16,10,.42,20.1-.12,30.13.31,2.17.1,5.49,2.1,6.17,4.09,12.51,36.55,24.7,73.23,36.93,109.9A11.21,11.21,0,0,1,1200.62,489.31ZM1127.26,430h22.15c-3.05-10.21-5.84-19.6-9.12-30.61Z" transform="translate(-135.27 -260.87)"/><path class="cls-1" d="M1010.06,489h-31.7c1.56-38.7,3.11-77,4.69-116.21,21.36,0,42.92-.88,64.39.35,11.76.68,20.38,12.6,22.11,25.83,2.31,17.72-4.18,33.54-16.91,41.16-10.2,6.1-21.1,6.35-32.71,4.81l-5.13-23.54c4.45,0,8.07.46,11.55-.09,7.18-1.15,11.16-7.19,10.58-15-.61-8.2-6.15-8.79-11.7-9-3.83-.12-7.68.44-12.75.78C1011.67,428.33,1010.88,458.28,1010.06,489Z" transform="translate(-135.27 -260.87)"/><path class="cls-1" d="M1302.93,372.79v26.95c-10.3-.64-20.79-2.48-31.1-1.68-19.5,1.51-32.92,20.85-29.85,41.2,2,13.21,10,23.39,22.22,24.39s24.37-.71,37.23-1.26c-1,7.65-2.23,16.66-3.54,26.4-18.12,2.58-36.14,5.12-54.12-1-18.19-6.23-31.45-17.93-35.23-39.38-4.11-23.35,0-44.38,16.82-60.73,14.07-13.65,31.32-17.74,49.54-17.37C1283.87,370.45,1292.81,371.84,1302.93,372.79Z" transform="translate(-135.27 -260.87)"/><path class="cls-1" d="M1344.91,399.16c-10.24,0-18.73-.23-27.2.09-4.5.17-6.78-.87-6.24-6.47.62-6.39.65-12.85,1-19.81h100.06c-.43,8.42-.86,16.71-1.31,25.57h-33q-1.77,44.91-3.58,90.47h-34.1C1342,458.91,1343.43,429.08,1344.91,399.16Z" transform="translate(-135.27 -260.87)"/><path class="cls-1" d="M811.69,488.8H777c1.51-38.68,3-76.85,4.52-115.69h34.26C814.38,411.67,813,450.05,811.69,488.8Z" transform="translate(-135.27 -260.87)"/><path class="cls-2" d="M145.4,496.45c0,48.65,39.64,88.08,88.52,88.08s88.52-39.43,88.52-88.08-39.63-88.08-88.52-88.08S145.4,447.81,145.4,496.45Zm32.69,0A55.83,55.83,0,1,1,233.92,552,55.69,55.69,0,0,1,178.09,496.45Z" transform="translate(-135.27 -260.87)"/><path class="cls-3" d="M164.14,496.45A69.79,69.79,0,1,0,233.92,427,69.61,69.61,0,0,0,164.14,496.45Zm14,0A55.83,55.83,0,1,1,233.92,552,55.69,55.69,0,0,1,178.09,496.45Z" transform="translate(-135.27 -260.87)"/><path d="M299.84,562a92.44,92.44,0,0,0,0-131.18,93.54,93.54,0,0,0-131.83,0,92.76,92.76,0,0,0,65.91,158.35A92.86,92.86,0,0,0,299.84,562Zm-6.65-124.56A83.61,83.61,0,0,1,174.66,555.42,83.61,83.61,0,0,1,293.19,437.48Z" transform="translate(-135.27 -260.87)"/><path d="M233.92,556.68a60.26,60.26,0,0,1-43-17.8l6.67-6.59a50.82,50.82,0,1,0-14.84-35.84,50.17,50.17,0,0,0,4.72,21.36L179,521.75a59.58,59.58,0,0,1-5.58-25.3,60.53,60.53,0,1,1,60.53,60.23Z" transform="translate(-135.27 -260.87)"/><polygon points="31.9 176.4 25.21 169.81 31.83 163.16 38.52 169.74 31.9 176.4"/><polygon points="165.48 307.89 158.76 301.27 165.38 294.62 172.09 301.24 165.48 307.89"/><polygon points="33.51 309.44 26.83 302.86 32.75 296.9 39.44 303.48 33.51 309.44"/><polygon points="165.54 176.64 158.86 170.06 165.55 163.33 172.23 169.91 165.54 176.64"/><rect x="135.3" y="493.08" width="9.47" height="9.36" transform="translate(-137.96 -260.1) rotate(-0.31)"/><rect x="323.09" y="492.07" width="9.47" height="9.36" transform="translate(-137.96 -259.08) rotate(-0.31)"/><rect x="230.6" y="584.61" width="9.4" height="9.92" transform="translate(-138.47 -259.58) rotate(-0.31)"/><rect x="229.59" y="398.24" width="9.4" height="9.49" transform="matrix(1, -0.01, 0.01, 1, -137.45, -259.59)"/><polygon points="14.11 206.87 5.3 203.31 8.84 194.64 17.65 198.2 14.11 206.87"/><polygon points="188.1 277.27 179.34 273.73 182.88 265.06 191.64 268.6 188.1 277.27"/><polygon points="66.9 328.65 58.19 325.13 62.17 315.39 70.88 318.92 66.9 328.65"/><polygon points="137.63 155.57 128.92 152.05 132.51 143.26 141.22 146.78 137.63 155.57"/><polygon points="182.34 206.7 178.69 198.08 188.18 194.1 191.83 202.72 182.34 206.7"/><polygon points="10.03 279.03 6.38 270.41 14.43 267.03 18.09 275.65 10.03 279.03"/><polygon points="133.1 327.61 129.44 318.98 138.1 315.34 141.76 323.97 133.1 327.61"/><polygon points="60.11 155.44 56.4 146.69 65.07 143.06 68.78 151.81 60.11 155.44"/><polygon points="50.13 171.95 40.42 157.54 48.23 152.33 57.94 166.74 50.13 171.95"/><polygon points="149.08 318.72 139.42 304.39 147.23 299.18 156.89 313.5 149.08 318.72"/><polygon points="20.99 294.46 15.75 286.69 30.14 277.08 35.38 284.85 20.99 294.46"/><polygon points="168.46 196.02 163.22 188.25 177.68 178.6 182.91 186.37 168.46 196.02"/><polygon points="18.96 225.54 1.92 222.2 3.73 213.02 20.78 216.36 18.96 225.54"/><polygon points="193.24 259.71 176.22 256.37 178.04 247.19 195.06 250.53 193.24 259.71"/><polygon points="85.27 331.78 76.04 329.97 79.38 313.08 88.61 314.89 85.27 331.78"/><polygon points="119.59 158.41 110.36 156.6 113.73 139.59 122.96 141.4 119.59 158.41"/><polygon points="29.06 195.72 14.53 186.12 19.73 178.32 34.27 187.92 29.06 195.72"/><polygon points="177.04 293.49 162.58 283.94 167.78 276.14 182.24 285.69 177.04 293.49"/><polygon points="49.56 319.58 41.73 314.4 51.32 300.02 59.15 305.2 49.56 319.58"/><polygon points="147.8 172.35 139.97 167.17 149.61 152.72 157.45 157.89 147.8 172.35"/><polygon points="178.34 225.43 176.48 216.25 193.55 212.82 195.41 222 178.34 225.43"/><polygon points="4.22 260.42 2.36 251.24 19.38 247.82 21.24 257 4.22 260.42"/><polygon points="113.81 331.48 110.38 314.59 119.59 312.74 123.02 329.63 113.81 331.48"/><polygon points="78.65 158.25 75.19 141.22 84.41 139.37 87.87 156.4 78.65 158.25"/><path class="cls-4" d="M472.33,455.16l-27.44,27.92A19.9,19.9,0,0,1,430.71,489H406.25a26.07,26.07,0,0,1-24.2-16.29l-.56-1.4s-11-29.61-8.92-35.42,41.3-46.15,41.3-46.15l68.6-5.07Z" transform="translate(-135.27 -260.87)"/><ellipse class="cls-5" cx="279.72" cy="194.5" rx="18.61" ry="18.52"/><polygon class="cls-4" points="258.13 113.6 227.37 148.96 212.62 114.46 258.13 113.6"/><ellipse class="cls-6" cx="98.65" cy="235.59" rx="30.24" ry="30.09"/><path d="M268.87,496.45a34.95,34.95,0,1,0-35,34.77A34.9,34.9,0,0,0,268.87,496.45Zm-9.41,0A25.54,25.54,0,1,1,233.92,471,25.51,25.51,0,0,1,259.46,496.45Z" transform="translate(-135.27 -260.87)"/><path d="M235,531.22v-9.36c.2,0,20.31-.14,48.56-9.2l2.89,8.9C256.65,531.11,235.85,531.22,235,531.22Z" transform="translate(-135.27 -260.87)"/><path class="cls-7" d="M379.94,467.66l-56.15,22-85.58,13.73a8.34,8.34,0,0,1-9.47-6.38h0a8.29,8.29,0,0,1,5.55-9.7l81.73-29,58.54-8.89Z" transform="translate(-135.27 -260.87)"/><path class="cls-7" d="M334.47,413.55a15.23,15.23,0,0,1-20.26,4.33L229.4,367.36a10.16,10.16,0,0,1-4.94-8L223,339.08l.08-.34L259,348a24.1,24.1,0,0,1,13.61,9.35l19.89,28a25.19,25.19,0,0,0,8.23,7.37l34.4,19.71Z" transform="translate(-135.27 -260.87)"/><path class="cls-8" d="M235.4,370.94l-6-3.58a10.16,10.16,0,0,1-4.94-8L223,339.08l.08-.34,24.59,6.33Z" transform="translate(-135.27 -260.87)"/><ellipse class="cls-6" cx="479.54" cy="232.15" rx="31.64" ry="31.48"/><path class="cls-2" d="M522.18,493c0,50.4,41.05,91.25,91.7,91.25s91.7-40.85,91.7-91.25-41.06-91.25-91.7-91.25S522.18,442.63,522.18,493Zm24.67,0a67,67,0,1,1,67,66.7A66.86,66.86,0,0,1,546.85,493Z" transform="translate(-135.27 -260.87)"/><path d="M682.05,560.86a95.6,95.6,0,0,0,0-135.66,95.93,95.93,0,1,0,0,135.66Zm-6.65-129a87.32,87.32,0,1,1-61.52-25.35A85.83,85.83,0,0,1,675.4,431.81Z" transform="translate(-135.27 -260.87)"/><path d="M613.88,431a62,62,0,1,0,62.33,62,61.49,61.49,0,0,0-24.56-49.34l5.7-7.44a72,72,0,0,1,20.57,24.59A70.3,70.3,0,0,1,685.61,493c0,39.36-32.18,71.38-71.73,71.38s-71.74-32-71.74-71.38,32.18-71.38,71.74-71.38a72,72,0,0,1,23.34,3.86l-3.06,8.85" transform="translate(-135.27 -260.87)"/><polygon points="410.9 172.03 404.11 165.34 410.72 158.69 417.51 165.38 410.9 172.03"/><polygon points="546.5 305.51 539.68 298.8 546.29 292.14 553.11 298.86 546.5 305.51"/><polygon points="412.43 307.09 405.75 300.51 411.76 294.46 418.45 301.04 412.43 307.09"/><polygon points="546.46 172.27 539.78 165.69 546.57 158.86 553.25 165.44 546.46 172.27"/><rect x="513.76" y="489.68" width="9.62" height="9.36" transform="translate(-137.94 -258.05) rotate(-0.31)"/><rect x="704.39" y="488.65" width="9.62" height="9.36" transform="translate(-137.93 -257.02) rotate(-0.31)"/><rect x="610.58" y="582.52" width="9.4" height="10.07" transform="translate(-138.43 -257.54) rotate(-0.31)"/><rect x="609.55" y="393.33" width="9.4" height="9.63" transform="translate(-137.42 -257.53) rotate(-0.31)"/><polygon points="392.81 202.95 383.87 199.33 387.41 190.66 396.36 194.28 392.81 202.95"/><polygon points="569.43 274.42 560.55 270.82 564.09 262.15 572.98 265.75 569.43 274.42"/><polygon points="446.31 326.61 437.6 323.09 441.64 313.21 450.35 316.73 446.31 326.61"/><polygon points="518.11 150.91 509.4 147.39 513.05 138.46 521.76 141.99 518.11 150.91"/><polygon points="563.54 202.78 559.88 194.15 569.52 190.11 573.17 198.73 563.54 202.78"/><polygon points="388.62 276.2 384.97 267.58 393.14 264.15 396.8 272.77 388.62 276.2"/><polygon points="513.64 325.55 509.93 316.79 518.59 313.15 522.31 321.92 513.64 325.55"/><polygon points="439.55 150.78 435.79 141.9 444.45 138.26 448.22 147.15 439.55 150.78"/><polygon points="428.48 166.15 418.42 151.22 426.23 146 436.29 160.93 428.48 166.15"/><polygon points="530.99 318.19 520.99 303.36 528.79 298.14 538.8 312.98 530.99 318.19"/><polygon points="398.06 293.01 392.82 285.24 407.73 275.29 412.97 283.06 398.06 293.01"/><polygon points="550.84 191.03 545.6 183.26 560.57 173.27 565.81 181.04 550.84 191.03"/><polygon points="396.08 221.59 378.42 218.13 380.24 208.95 397.9 212.41 396.08 221.59"/><polygon points="576.63 256.99 559 253.53 560.82 244.35 578.45 247.81 576.63 256.99"/><polygon points="464.57 331.79 455.35 329.98 458.81 312.48 468.04 314.29 464.57 331.79"/><polygon points="500.14 152.18 490.91 150.37 494.4 132.75 503.63 134.56 500.14 152.18"/><polygon points="406.61 190.72 391.55 180.78 396.75 172.98 411.81 182.93 406.61 190.72"/><polygon points="559.91 292.01 544.93 282.11 550.14 274.32 565.12 284.21 559.91 292.01"/><polygon points="427.61 319.09 419.77 313.91 429.71 299.02 437.55 304.19 427.61 319.09"/><polygon points="529.38 166.56 521.55 161.38 531.54 146.41 539.38 151.58 529.38 166.56"/><polygon points="561.13 221.47 559.27 212.3 576.95 208.75 578.82 217.92 561.13 221.47"/><polygon points="380.75 257.72 378.89 248.55 396.52 245.01 398.38 254.18 380.75 257.72"/><polygon points="494.47 331.48 490.92 313.98 500.14 312.13 503.69 329.62 494.47 331.48"/><polygon points="458.05 152.01 454.47 134.37 463.69 132.52 467.27 150.16 458.05 152.01"/><path d="M651.15,493a36.34,36.34,0,1,0-36.34,36.16A36.29,36.29,0,0,0,651.15,493Zm-9.41,0a26.94,26.94,0,1,1-26.93-26.8A26.89,26.89,0,0,1,641.74,493Z" transform="translate(-135.27 -260.87)"/><path class="cls-6" d="M618.58,502.41l.78-.37a10.57,10.57,0,0,0,4.95-14.15L527.47,288.43a2.74,2.74,0,0,0-3.64-1.26l-15,7.24a2.7,2.7,0,0,0-1.27,3.62l96.84,199.46A10.67,10.67,0,0,0,618.58,502.41Z" transform="translate(-135.27 -260.87)"/><polygon class="cls-9" points="463.43 228.15 483.37 218.55 453.94 154.04 433.99 163.64 463.43 228.15"/><polygon class="cls-3" points="396.87 87.72 416.82 78.12 424.75 94.02 404.8 103.62 396.87 87.72"/><polygon class="cls-3" points="370.35 34.71 390.29 25.11 398.22 41.01 378.28 50.61 370.35 34.71"/><path class="cls-6" d="M393.82,410.9s23.28-.22,48.25.57c14,.44,42.71.67,56.58,19.67,12.33,16.88,9.16,37.93,6.57,42.7-4.11,7.55-12,11.21-21.07,6.67-10.75-5.4-8.1-15.13-10.69-23.88-2-6.73-5.78-15.36-19.37-20.45-10.3-3.87-50.55-10.87-74.73-9.5Z" transform="translate(-135.27 -260.87)"/><polygon class="cls-5" points="221.14 191.36 253.03 155.86 233.86 140.29 188.24 193.57 221.14 191.36"/><polygon class="cls-3" points="234.52 139.55 253.03 155.86 278.6 128.88 266.02 115.06 257.12 114.14 234.52 139.55"/><path class="cls-10" d="M476.3,381.4l-4.86,9.13a15.49,15.49,0,0,1-14.55,8.13l-31.7-1.85a12.65,12.65,0,0,1-8.63-4.11l-15.65-17.48Z" transform="translate(-135.27 -260.87)"/><path class="cls-10" d="M484.24,355.61l4.86-36.72a1.77,1.77,0,0,0-1.87-2l-13.25.69a11.23,11.23,0,0,0-4.74,1.33L432,339Z" transform="translate(-135.27 -260.87)"/><polygon class="cls-3" points="375.6 44.06 354.06 70.77 383.37 95.22 394.84 83.68 375.6 44.06"/><path class="cls-9" d="M432,339l52.27,16.64,3.25-25.5,50.58,46.06L526.7,397.22,506,405.67,494.67,424.4l-15.59-10.61,3.71-31.9-108.18-8.58L259,348l-79.4-20.47a16.34,16.34,0,0,1-11.12-9.77h0l91.88,8.57Z" transform="translate(-135.27 -260.87)"/><path class="cls-2" d="M388.64,356c-10.69,1.33-130.11-29.41-130.11-29.41,0-3.25,4.68-4.86,7.92-4.52,17.79,1.85,69.83,7.22,90.12,8.75,28.06,2.13,82.75-4.13,100.57-5.5C457.14,325.35,399.32,354.7,388.64,356Z" transform="translate(-135.27 -260.87)"/><path class="cls-9" d="M286,332.44,259,348a24.1,24.1,0,0,1,13.61,9.35l19.89,28a25.19,25.19,0,0,0,8.23,7.37l53.17,31.4a3.9,3.9,0,0,0,5-1l7.86-8.74-11.86-25.24a5.83,5.83,0,0,1,2.79-7.74l16.91-8-1-.73-23.32-23.33Z" transform="translate(-135.27 -260.87)"/><path class="cls-2" d="M519.55,284.94l-8-13.82a7.83,7.83,0,0,0-6.07-3.47L475.85,266l-.7,17.5,25.23,1.36,5.09,7Z" transform="translate(-135.27 -260.87)"/><path class="cls-9" d="M551.25,337.42,561,334.1s2.79-22.64,1.65-27.25c-1.22-4.9-30.68-35.4-36.24-41.13a1.45,1.45,0,0,0-1.93-.13l-6.7,5.07Z" transform="translate(-135.27 -260.87)"/><path class="cls-9" d="M601,336a87.62,87.62,0,0,1,42.32,12.23l33.56,19.9h0a2.29,2.29,0,0,1-2.5,1.47l-44.1-6.84a23.23,23.23,0,0,1-7.76-2.67l-1.42-.79a22.77,22.77,0,0,0-12.2-2.82L561.73,359,550.14,334.1Z" transform="translate(-135.27 -260.87)"/><polygon points="406.85 107.83 402.75 99.41 422.7 89.81 426.8 98.23 406.85 107.83"/><polygon points="398.92 91.94 394.82 83.51 414.77 73.91 418.87 82.33 398.92 91.94"/><polygon points="382.16 57.05 378.06 48.62 398 39.02 402.1 47.44 382.16 57.05"/><polygon points="369.99 36.15 365.89 27.73 385.84 18.13 389.94 26.55 369.99 36.15"/><polygon points="436.04 167.85 431.94 159.43 451.89 149.82 455.99 158.25 436.04 167.85"/><polygon points="465.47 232.36 461.38 223.94 481.32 214.34 485.42 222.76 465.47 232.36"/><path d="M674.72,374.31a6.51,6.51,0,0,1-1.07-.08l-44.1-6.84a28.14,28.14,0,0,1-9.34-3.2l-1.41-.79a17.91,17.91,0,0,0-9.67-2.24L562,363.66l-.5-9.34,47.16-2.5a27.37,27.37,0,0,1,14.74,3.41l1.42.79a18.42,18.42,0,0,0,6.19,2.12l26.87,4.17-17-10.05a83.28,83.28,0,0,0-40-11.58h0L550,338.77l.35-9.35,50.84,1.91a92.72,92.72,0,0,1,44.57,12.89l36.89,21.87-1.32,3.63A7,7,0,0,1,674.72,374.31Z" transform="translate(-135.27 -260.87)"/><path d="M565.63,334.67l-9.33-1.14c1.26-10.18,2.27-22.6,1.78-25.41-1.65-3.4-15.07-18.44-33.07-37.07l-5.43,4.08-5.67-7.47,7.14-5.36a6.93,6.93,0,0,1,9.2.67c3.35,3.46,12,12.44,20,21.18,15.89,17.38,16.54,20,16.93,21.57C568.44,310.78,566.31,329.16,565.63,334.67Z" transform="translate(-135.27 -260.87)"/><path d="M356.91,429.13a7.38,7.38,0,0,1-3.61-.93l-.05,0-54.83-31.41a30,30,0,0,1-9.74-8.74l-19.9-28a19.4,19.4,0,0,0-10.95-7.52l-79.4-20.47a21.12,21.12,0,0,1-14.31-12.58l-2.82-7.1,99.51,9.29-.88,9.32-75.5-7.05,75.76,19.53a28.8,28.8,0,0,1,16.27,11.17l19.89,28a20.65,20.65,0,0,0,6.69,6l0,0,53.39,30.58,4.76-5.62-10.59-22.52a10.53,10.53,0,0,1,5-14l18.05-8.57,66.14,5.24-.75,9.33-63.62-5-15.76,7.49a1.16,1.16,0,0,0-.56,1.54l13.13,27.94-9.56,11.3A7.44,7.44,0,0,1,356.91,429.13Z" transform="translate(-135.27 -260.87)"/><polygon points="360.86 170.2 338.82 155.19 342.29 125.31 321.5 123.66 322.25 114.33 352.75 116.75 348.81 150.66 357.94 156.88 367.52 141.06 388.09 132.66 396.93 116.29 355.74 78.79 352.92 100.92 313.18 88.27 316.04 79.35 345.01 88.57 348.7 59.7 408.68 114.31 394.77 140.04 373.97 148.55 360.86 170.2"/><path d="M387.83,360.76c-3.72,0-15.87-1.49-69.36-14.39-30.87-7.44-60.82-15.15-61.12-15.22l-3.52-.91v-3.62a8.13,8.13,0,0,1,2.83-6.11,13.94,13.94,0,0,1,10.28-3.06c10.56,1.1,34.75,3.57,53.15,5.38l-.93,9.31c-10.22-1-22.22-2.21-32.69-3.28,10,2.5,21.87,5.44,33.89,8.34,56.94,13.73,66.22,14.33,67.71,14.19,5.06-.63,25.31-9.83,44.55-19.13-23.95,2.17-56.61,4.76-76.4,3.26-6.13-.47-12.17-1-22.28-2l.9-9.31c10,.95,16,1.48,22.09,1.94,22.08,1.67,61.63-2,85.27-4.21,5.9-.55,11-1,14.58-1.29l23.44-1.8-20.94,10.63c-.14.07-14.69,7.45-30.36,14.89-28.92,13.75-36.51,15.87-39.7,16.26A10,10,0,0,1,387.83,360.76Z" transform="translate(-135.27 -260.87)"/><path d="M322,424.69a19.84,19.84,0,0,1-10.17-2.79L227,371.38a14.84,14.84,0,0,1-7.22-11.67l-1.47-20.3,9.38-.67,1.47,20.3a5.5,5.5,0,0,0,2.67,4.31l84.8,50.52a10.55,10.55,0,0,0,14-3l1.55-2.21,7.72,5.35-1.55,2.2A19.92,19.92,0,0,1,322,424.69Z" transform="translate(-135.27 -260.87)"/><polygon points="383.67 101.57 347.51 71.42 371.93 41.13 379.27 46.99 360.6 70.13 383.07 88.86 391.5 80.39 398.18 86.97 383.67 101.57"/><path d="M457.79,403.36l-1.18,0-31.7-1.85a17.31,17.31,0,0,1-11.84-5.64l-16.59-18.23,7-6.28L420,389.55a7.89,7.89,0,0,0,5.42,2.59l31.7,1.85a10.81,10.81,0,0,0,10.13-5.66l4.61-8.62,8.3,4.4-4.6,8.61A20.24,20.24,0,0,1,457.79,403.36Z" transform="translate(-135.27 -260.87)"/><polygon points="234.97 115.01 211.66 91.68 218.32 85.08 241.64 108.41 234.97 115.01"/><polygon points="126.1 91.18 121.38 83.08 148.31 67.53 153.03 75.63 126.1 91.18"/><rect x="498.08" y="353.37" width="9.36" height="60.09" transform="translate(-53 594.74) rotate(-85.64)"/><polygon points="405.89 119.71 347.4 99.16 350.53 90.33 409.02 110.89 405.89 119.71"/><path d="M488.9,356.22,479.57,355l4.4-33.22-9.74.52a6.53,6.53,0,0,0-2.76.77l-.11.05-39.82,20-4.24-8.35,39.77-20a16,16,0,0,1,6.66-1.85l13.25-.7a6.5,6.5,0,0,1,5.06,2,6.42,6.42,0,0,1,1.73,5.14v.09Z" transform="translate(-135.27 -260.87)"/><path d="M415,478.56a23.18,23.18,0,0,1-19.33-36.17l7.8,5.24a13.67,13.67,0,0,0-2.38,7.74A13.91,13.91,0,1,0,415,441.53v-9.36a23.2,23.2,0,1,1,0,46.39Z" transform="translate(-135.27 -260.87)"/><path d="M509.35,476.06c3.51-6.44,6.51-29.32-6.9-47.67-14.77-20.23-43.42-21.09-58.81-21.55l-1.42,0c-24.78-.78-48.21-.57-48.44-.57l-2,0L368.12,432l11.51-.65c24.22-1.37,63.59,5.75,72.81,9.21C463.66,444.77,467,451.41,469,458a42.66,42.66,0,0,1,1.19,6.66c.85,6.71,1.9,15.05,11.89,20.07a22.1,22.1,0,0,0,9.91,2.48C499,487.17,505.43,483.28,509.35,476.06ZM395.91,415.57c6.21,0,25.64-.06,46,.58l1.44,0c13.78.41,39.43,1.18,51.49,17.7,11.34,15.53,7.84,34.77,6.23,37.72s-6.13,9.09-14.81,4.73c-5.28-2.65-6-6.24-6.8-12.88a49.72,49.72,0,0,0-1.5-8.15c-2.36-7.95-7-17.81-22.22-23.51-9.42-3.53-41.1-9.31-65.62-9.93Z" transform="translate(-135.27 -260.87)"/><path d="M420.28,389.81l-16.71-18.35-13.1-1.35-27.31,30.7,25.43,22.43Zm-26-9.9,4.7.49,8.46,9.28L388,410.22,376.43,400Z" transform="translate(-135.27 -260.87)"/><path d="M430.71,493.69H406.25a30.65,30.65,0,0,1-28.57-19.23l-.62-1.55c-.12-.33-2.88-8-5.43-16.47-4.87-16.17-4.68-20.83-3.76-23.46l8.88,3.09.05-.16c-.07.33-.48,3.62,4,18.47,2.29,7.57,4.77,14.49,5.05,15.28l.53,1.32a21.29,21.29,0,0,0,19.84,13.36h24.46a15.29,15.29,0,0,0,10.82-4.53l4.74-4.82,6.72,6.54-4.73,4.82A24.73,24.73,0,0,1,430.71,493.69Z" transform="translate(-135.27 -260.87)"/><polygon points="325.24 213.02 318.51 206.48 333.7 191.02 340.42 197.56 325.24 213.02"/><polygon points="189.16 198.31 182.11 192.12 212.55 157.78 219.6 163.97 189.16 198.31"/><polygon points="224.66 194.45 217.61 188.26 250.27 151.42 257.32 157.61 224.66 194.45"/><path d="M236.87,508.23a13.05,13.05,0,0,1-12.72-10.15,12.92,12.92,0,0,1,8.62-15.15l82.1-29.15.44-.06,58.54-8.89,1.42,9.25-58.09,8.82-81.37,28.88-.06,0a3.62,3.62,0,0,0,1.71,7l85.07-13.65,55.69-21.86,3.45,8.7L325,494.25,239,508.06A13.49,13.49,0,0,1,236.87,508.23Z" transform="translate(-135.27 -260.87)"/><rect x="233.9" y="460.68" width="45.62" height="9.36" transform="translate(-155.59 -249.06) rotate(-2.53)"/><path d="M621,506.44a15.7,15.7,0,0,0,7.34-21l-79.65-164-8.46,4.07,79.64,164a6.37,6.37,0,0,1-11.48,5.52L510.57,293.55l-4.9-9.36-.2-.27a9.28,9.28,0,0,0-7-3.83l-18.41-1,.31-8.15,23.36,1.26a6.24,6.24,0,0,1,4.81,2.77l9.4,13.91,4.35-.43q9,18.7,18.05,37.39l8.93-3.75-18.6-37.89a9.16,9.16,0,0,0-8-5.12l-6.29-9.31a15.69,15.69,0,0,0-12.1-6.91L479,261.53a7.5,7.5,0,0,0-8,7.17l-.45,11.85a7.54,7.54,0,0,0,7.1,7.81l20.14,1.07,4.32,8.26,97.81,201.44A15.84,15.84,0,0,0,621,506.44ZM480,280.94v0Zm-1.5-10.07h0Z" transform="translate(-135.27 -260.87)"/><polygon points="104.3 112.22 95.82 108.17 107.89 83.17 116.37 87.22 104.3 112.22"/><path d="M323.67,511.46l-3.05-8.86c.37-.12,36.72-12.64,60.56-29.88l5.53,7.57C361.71,498.37,325.21,510.93,323.67,511.46Z" transform="translate(-135.27 -260.87)"/><rect x="610.7" y="515.28" width="9.4" height="9.01" transform="translate(-160.57 -229.34) rotate(-2.88)"/><rect x="582.97" y="489.77" width="9.05" height="9.36" transform="translate(-159.34 -230.77) rotate(-2.88)"/><rect x="637.2" y="487.07" width="9.05" height="9.36" transform="translate(-159.13 -228.05) rotate(-2.88)"/><polygon points="499.24 256.98 492.53 250.93 498.84 243.99 505.55 250.04 499.24 256.98"/><polygon points="497.88 218.25 490.9 211.97 496.98 205.29 503.95 211.57 497.88 218.25"/><polygon points="461.44 258.32 454.47 252.05 460.54 245.37 467.51 251.65 461.44 258.32"/><rect x="227.69" y="516.35" width="8.22" height="9.4" transform="translate(-437.26 460.92) rotate(-86.63)"/><rect x="230.62" y="467.15" width="8.22" height="9.4" transform="translate(-385.39 417.53) rotate(-86.63)"/><rect x="204.33" y="491.19" width="9.36" height="8.26" transform="translate(-433.01 413.97) rotate(-86.63)"/><polygon points="113.74 260.59 108.25 254.44 115.29 248.23 120.77 254.37 113.74 260.59"/><polygon points="80.85 223.74 75.36 217.59 82.39 211.38 87.88 217.53 80.85 223.74"/><polygon points="79.9 258.11 73.66 251.11 79.83 245.65 86.08 252.65 79.9 258.11"/><path class="cls-9" d="M763.14,338.83" transform="translate(-135.27 -260.87)"/></svg>