<svg id="Layer_1" data-name="Layer 1" xmlns="http://www.w3.org/2000/svg" viewBox="0 0 53 46.75"><defs><style>.cls-1{fill:#ccc;fill-rule:evenodd;}</style></defs><path class="cls-1" d="M109,114.22a8.26,8.26,0,0,1,4.48,1.92,5.41,5.41,0,0,1,1.77,2.86c-3.34-.22-5-2-6.25-4.78m22,0a8.26,8.26,0,0,0-4.48,1.92,5.41,5.41,0,0,0-1.77,2.86C128.11,118.78,129.77,117,131,114.22ZM121.36,129h-3.47L113,124.63l-13.63-2.78,3.39-16.79-4.82-9L96.74,87,93.5,82.25l18.07,9.18h16.86l18.07-9.18L143.26,87l-1.2,9.11-4.82,9,3.39,16.79L127,124.63,122.11,129Z" transform="translate(-93.5 -82.25)"/></svg>